<mxfile host="app.diagrams.net" modified="2021-06-03T01:40:04.151Z" agent="5.0 (Windows NT 10.0; Win64; x64) AppleWebKit/537.36 (KHTML, like Gecko) Chrome/90.0.4430.212 Safari/537.36" etag="Tdz1MQlq0wJO2kuBDQpl" version="14.7.3" type="github">
  <diagram id="C5RBs43oDa-KdzZeNtuy" name="Page-1">
    <mxGraphModel dx="4088" dy="3069" grid="1" gridSize="10" guides="1" tooltips="1" connect="1" arrows="1" fold="1" page="1" pageScale="1" pageWidth="827" pageHeight="1169" math="0" shadow="0">
      <root>
        <mxCell id="WIyWlLk6GJQsqaUBKTNV-0" />
        <mxCell id="WIyWlLk6GJQsqaUBKTNV-1" parent="WIyWlLk6GJQsqaUBKTNV-0" />
        <mxCell id="sNdO-N4uLc9RXzIMHpv_-0" value="X_test" style="swimlane;fontStyle=0;childLayout=stackLayout;horizontal=1;startSize=26;horizontalStack=0;resizeParent=1;resizeParentMax=0;resizeLast=0;collapsible=1;marginBottom=0;" vertex="1" parent="WIyWlLk6GJQsqaUBKTNV-1">
          <mxGeometry x="590" y="200" width="140" height="78" as="geometry" />
        </mxCell>
        <mxCell id="sNdO-N4uLc9RXzIMHpv_-1" value="Delta Amplitude" style="text;strokeColor=none;fillColor=none;align=left;verticalAlign=top;spacingLeft=4;spacingRight=4;overflow=hidden;rotatable=0;points=[[0,0.5],[1,0.5]];portConstraint=eastwest;" vertex="1" parent="sNdO-N4uLc9RXzIMHpv_-0">
          <mxGeometry y="26" width="140" height="26" as="geometry" />
        </mxCell>
        <mxCell id="sNdO-N4uLc9RXzIMHpv_-2" value="Delta Phase" style="text;strokeColor=none;fillColor=none;align=left;verticalAlign=top;spacingLeft=4;spacingRight=4;overflow=hidden;rotatable=0;points=[[0,0.5],[1,0.5]];portConstraint=eastwest;" vertex="1" parent="sNdO-N4uLc9RXzIMHpv_-0">
          <mxGeometry y="52" width="140" height="26" as="geometry" />
        </mxCell>
        <mxCell id="sNdO-N4uLc9RXzIMHpv_-3" value="DataSet" style="swimlane;fontStyle=0;childLayout=stackLayout;horizontal=1;startSize=26;horizontalStack=0;resizeParent=1;resizeParentMax=0;resizeLast=0;collapsible=1;marginBottom=0;" vertex="1" parent="WIyWlLk6GJQsqaUBKTNV-1">
          <mxGeometry x="20" y="490" width="140" height="78" as="geometry">
            <mxRectangle x="200" y="140" width="50" height="26" as="alternateBounds" />
          </mxGeometry>
        </mxCell>
        <mxCell id="sNdO-N4uLc9RXzIMHpv_-4" value="X: Input Vectors" style="text;strokeColor=none;fillColor=none;align=left;verticalAlign=top;spacingLeft=4;spacingRight=4;overflow=hidden;rotatable=0;points=[[0,0.5],[1,0.5]];portConstraint=eastwest;" vertex="1" parent="sNdO-N4uLc9RXzIMHpv_-3">
          <mxGeometry y="26" width="140" height="26" as="geometry" />
        </mxCell>
        <mxCell id="sNdO-N4uLc9RXzIMHpv_-5" value="Y: Output Labels" style="text;strokeColor=none;fillColor=none;align=left;verticalAlign=top;spacingLeft=4;spacingRight=4;overflow=hidden;rotatable=0;points=[[0,0.5],[1,0.5]];portConstraint=eastwest;" vertex="1" parent="sNdO-N4uLc9RXzIMHpv_-3">
          <mxGeometry y="52" width="140" height="26" as="geometry" />
        </mxCell>
        <mxCell id="sNdO-N4uLc9RXzIMHpv_-9" value="Y" style="swimlane;fontStyle=0;childLayout=stackLayout;horizontal=1;startSize=26;horizontalStack=0;resizeParent=1;resizeParentMax=0;resizeLast=0;collapsible=1;marginBottom=0;" vertex="1" parent="WIyWlLk6GJQsqaUBKTNV-1">
          <mxGeometry x="210" y="520" width="140" height="78" as="geometry">
            <mxRectangle x="200" y="140" width="50" height="26" as="alternateBounds" />
          </mxGeometry>
        </mxCell>
        <mxCell id="sNdO-N4uLc9RXzIMHpv_-10" value="Y_test" style="text;strokeColor=none;fillColor=none;align=left;verticalAlign=top;spacingLeft=4;spacingRight=4;overflow=hidden;rotatable=0;points=[[0,0.5],[1,0.5]];portConstraint=eastwest;" vertex="1" parent="sNdO-N4uLc9RXzIMHpv_-9">
          <mxGeometry y="26" width="140" height="26" as="geometry" />
        </mxCell>
        <mxCell id="sNdO-N4uLc9RXzIMHpv_-11" value="Y_train" style="text;strokeColor=none;fillColor=none;align=left;verticalAlign=top;spacingLeft=4;spacingRight=4;overflow=hidden;rotatable=0;points=[[0,0.5],[1,0.5]];portConstraint=eastwest;" vertex="1" parent="sNdO-N4uLc9RXzIMHpv_-9">
          <mxGeometry y="52" width="140" height="26" as="geometry" />
        </mxCell>
        <mxCell id="sNdO-N4uLc9RXzIMHpv_-13" style="edgeStyle=orthogonalEdgeStyle;rounded=0;orthogonalLoop=1;jettySize=auto;html=1;exitX=1;exitY=0.5;exitDx=0;exitDy=0;entryX=0;entryY=0.25;entryDx=0;entryDy=0;" edge="1" parent="WIyWlLk6GJQsqaUBKTNV-1" source="sNdO-N4uLc9RXzIMHpv_-5" target="sNdO-N4uLc9RXzIMHpv_-9">
          <mxGeometry relative="1" as="geometry" />
        </mxCell>
        <mxCell id="sNdO-N4uLc9RXzIMHpv_-14" value="X_train" style="swimlane;fontStyle=0;childLayout=stackLayout;horizontal=1;startSize=26;horizontalStack=0;resizeParent=1;resizeParentMax=0;resizeLast=0;collapsible=1;marginBottom=0;" vertex="1" parent="WIyWlLk6GJQsqaUBKTNV-1">
          <mxGeometry x="590" y="310" width="140" height="78" as="geometry" />
        </mxCell>
        <mxCell id="sNdO-N4uLc9RXzIMHpv_-15" value="Delta Amplitude" style="text;strokeColor=none;fillColor=none;align=left;verticalAlign=top;spacingLeft=4;spacingRight=4;overflow=hidden;rotatable=0;points=[[0,0.5],[1,0.5]];portConstraint=eastwest;" vertex="1" parent="sNdO-N4uLc9RXzIMHpv_-14">
          <mxGeometry y="26" width="140" height="26" as="geometry" />
        </mxCell>
        <mxCell id="sNdO-N4uLc9RXzIMHpv_-16" value="Delta Phase" style="text;strokeColor=none;fillColor=none;align=left;verticalAlign=top;spacingLeft=4;spacingRight=4;overflow=hidden;rotatable=0;points=[[0,0.5],[1,0.5]];portConstraint=eastwest;" vertex="1" parent="sNdO-N4uLc9RXzIMHpv_-14">
          <mxGeometry y="52" width="140" height="26" as="geometry" />
        </mxCell>
        <mxCell id="sNdO-N4uLc9RXzIMHpv_-18" style="edgeStyle=orthogonalEdgeStyle;rounded=0;orthogonalLoop=1;jettySize=auto;html=1;entryX=0;entryY=0.25;entryDx=0;entryDy=0;exitX=1;exitY=0.75;exitDx=0;exitDy=0;" edge="1" parent="WIyWlLk6GJQsqaUBKTNV-1" source="sNdO-N4uLc9RXzIMHpv_-76" target="sNdO-N4uLc9RXzIMHpv_-14">
          <mxGeometry relative="1" as="geometry">
            <mxPoint x="280" y="270" as="sourcePoint" />
          </mxGeometry>
        </mxCell>
        <mxCell id="sNdO-N4uLc9RXzIMHpv_-19" value="Y_test" style="swimlane;" vertex="1" parent="WIyWlLk6GJQsqaUBKTNV-1">
          <mxGeometry x="590" y="440" width="110" height="260" as="geometry" />
        </mxCell>
        <mxCell id="sNdO-N4uLc9RXzIMHpv_-20" value="AM DSB" style="text;html=1;align=center;verticalAlign=middle;resizable=0;points=[];autosize=1;strokeColor=none;" vertex="1" parent="sNdO-N4uLc9RXzIMHpv_-19">
          <mxGeometry x="20" y="48" width="60" height="20" as="geometry" />
        </mxCell>
        <mxCell id="sNdO-N4uLc9RXzIMHpv_-21" value="AM SSB" style="text;html=1;align=center;verticalAlign=middle;resizable=0;points=[];autosize=1;strokeColor=none;" vertex="1" parent="sNdO-N4uLc9RXzIMHpv_-19">
          <mxGeometry x="25" y="28" width="60" height="20" as="geometry" />
        </mxCell>
        <mxCell id="sNdO-N4uLc9RXzIMHpv_-22" value="QPSK" style="text;html=1;align=center;verticalAlign=middle;resizable=0;points=[];autosize=1;strokeColor=none;" vertex="1" parent="sNdO-N4uLc9RXzIMHpv_-19">
          <mxGeometry x="20" y="130" width="50" height="20" as="geometry" />
        </mxCell>
        <mxCell id="sNdO-N4uLc9RXzIMHpv_-23" value="BPSK" style="text;html=1;align=center;verticalAlign=middle;resizable=0;points=[];autosize=1;strokeColor=none;" vertex="1" parent="sNdO-N4uLc9RXzIMHpv_-19">
          <mxGeometry x="20" y="88" width="50" height="20" as="geometry" />
        </mxCell>
        <mxCell id="sNdO-N4uLc9RXzIMHpv_-24" value="WBFM" style="text;html=1;align=center;verticalAlign=middle;resizable=0;points=[];autosize=1;strokeColor=none;" vertex="1" parent="sNdO-N4uLc9RXzIMHpv_-19">
          <mxGeometry x="25" y="68" width="50" height="20" as="geometry" />
        </mxCell>
        <mxCell id="sNdO-N4uLc9RXzIMHpv_-25" value="16QAM" style="text;html=1;align=center;verticalAlign=middle;resizable=0;points=[];autosize=1;strokeColor=none;" vertex="1" parent="sNdO-N4uLc9RXzIMHpv_-19">
          <mxGeometry x="15" y="210" width="60" height="20" as="geometry" />
        </mxCell>
        <mxCell id="sNdO-N4uLc9RXzIMHpv_-26" value="BFSK" style="text;html=1;align=center;verticalAlign=middle;resizable=0;points=[];autosize=1;strokeColor=none;" vertex="1" parent="sNdO-N4uLc9RXzIMHpv_-19">
          <mxGeometry x="20" y="150" width="50" height="20" as="geometry" />
        </mxCell>
        <mxCell id="sNdO-N4uLc9RXzIMHpv_-27" value="CPFSK" style="text;html=1;align=center;verticalAlign=middle;resizable=0;points=[];autosize=1;strokeColor=none;" vertex="1" parent="sNdO-N4uLc9RXzIMHpv_-19">
          <mxGeometry x="15" y="170" width="60" height="20" as="geometry" />
        </mxCell>
        <mxCell id="sNdO-N4uLc9RXzIMHpv_-28" value="64 QAM" style="text;html=1;align=center;verticalAlign=middle;resizable=0;points=[];autosize=1;strokeColor=none;" vertex="1" parent="sNdO-N4uLc9RXzIMHpv_-19">
          <mxGeometry x="20" y="110" width="60" height="20" as="geometry" />
        </mxCell>
        <mxCell id="sNdO-N4uLc9RXzIMHpv_-29" value="8PSK" style="text;html=1;align=center;verticalAlign=middle;resizable=0;points=[];autosize=1;strokeColor=none;" vertex="1" parent="sNdO-N4uLc9RXzIMHpv_-19">
          <mxGeometry x="20" y="190" width="50" height="20" as="geometry" />
        </mxCell>
        <mxCell id="sNdO-N4uLc9RXzIMHpv_-30" value="PAM4" style="text;html=1;align=center;verticalAlign=middle;resizable=0;points=[];autosize=1;strokeColor=none;" vertex="1" parent="sNdO-N4uLc9RXzIMHpv_-19">
          <mxGeometry x="20" y="230" width="50" height="20" as="geometry" />
        </mxCell>
        <mxCell id="sNdO-N4uLc9RXzIMHpv_-31" value="Y_train" style="swimlane;" vertex="1" parent="WIyWlLk6GJQsqaUBKTNV-1">
          <mxGeometry x="590" y="780" width="110" height="250" as="geometry" />
        </mxCell>
        <mxCell id="sNdO-N4uLc9RXzIMHpv_-32" value="AM DSB" style="text;html=1;align=center;verticalAlign=middle;resizable=0;points=[];autosize=1;strokeColor=none;" vertex="1" parent="sNdO-N4uLc9RXzIMHpv_-31">
          <mxGeometry x="20" y="48" width="60" height="20" as="geometry" />
        </mxCell>
        <mxCell id="sNdO-N4uLc9RXzIMHpv_-33" value="AM SSB" style="text;html=1;align=center;verticalAlign=middle;resizable=0;points=[];autosize=1;strokeColor=none;" vertex="1" parent="sNdO-N4uLc9RXzIMHpv_-31">
          <mxGeometry x="25" y="28" width="60" height="20" as="geometry" />
        </mxCell>
        <mxCell id="sNdO-N4uLc9RXzIMHpv_-34" value="QPSK" style="text;html=1;align=center;verticalAlign=middle;resizable=0;points=[];autosize=1;strokeColor=none;" vertex="1" parent="sNdO-N4uLc9RXzIMHpv_-31">
          <mxGeometry x="20" y="130" width="50" height="20" as="geometry" />
        </mxCell>
        <mxCell id="sNdO-N4uLc9RXzIMHpv_-35" value="BPSK" style="text;html=1;align=center;verticalAlign=middle;resizable=0;points=[];autosize=1;strokeColor=none;" vertex="1" parent="sNdO-N4uLc9RXzIMHpv_-31">
          <mxGeometry x="20" y="88" width="50" height="20" as="geometry" />
        </mxCell>
        <mxCell id="sNdO-N4uLc9RXzIMHpv_-36" value="WBFM" style="text;html=1;align=center;verticalAlign=middle;resizable=0;points=[];autosize=1;strokeColor=none;" vertex="1" parent="sNdO-N4uLc9RXzIMHpv_-31">
          <mxGeometry x="25" y="68" width="50" height="20" as="geometry" />
        </mxCell>
        <mxCell id="sNdO-N4uLc9RXzIMHpv_-37" value="16QAM" style="text;html=1;align=center;verticalAlign=middle;resizable=0;points=[];autosize=1;strokeColor=none;" vertex="1" parent="sNdO-N4uLc9RXzIMHpv_-31">
          <mxGeometry x="15" y="210" width="60" height="20" as="geometry" />
        </mxCell>
        <mxCell id="sNdO-N4uLc9RXzIMHpv_-38" value="BFSK" style="text;html=1;align=center;verticalAlign=middle;resizable=0;points=[];autosize=1;strokeColor=none;" vertex="1" parent="sNdO-N4uLc9RXzIMHpv_-31">
          <mxGeometry x="20" y="150" width="50" height="20" as="geometry" />
        </mxCell>
        <mxCell id="sNdO-N4uLc9RXzIMHpv_-39" value="CPFSK" style="text;html=1;align=center;verticalAlign=middle;resizable=0;points=[];autosize=1;strokeColor=none;" vertex="1" parent="sNdO-N4uLc9RXzIMHpv_-31">
          <mxGeometry x="15" y="170" width="60" height="20" as="geometry" />
        </mxCell>
        <mxCell id="sNdO-N4uLc9RXzIMHpv_-40" value="64 QAM" style="text;html=1;align=center;verticalAlign=middle;resizable=0;points=[];autosize=1;strokeColor=none;" vertex="1" parent="sNdO-N4uLc9RXzIMHpv_-31">
          <mxGeometry x="20" y="110" width="60" height="20" as="geometry" />
        </mxCell>
        <mxCell id="sNdO-N4uLc9RXzIMHpv_-41" value="8PSK" style="text;html=1;align=center;verticalAlign=middle;resizable=0;points=[];autosize=1;strokeColor=none;" vertex="1" parent="sNdO-N4uLc9RXzIMHpv_-31">
          <mxGeometry x="20" y="190" width="50" height="20" as="geometry" />
        </mxCell>
        <mxCell id="sNdO-N4uLc9RXzIMHpv_-42" value="PAM4" style="text;html=1;align=center;verticalAlign=middle;resizable=0;points=[];autosize=1;strokeColor=none;" vertex="1" parent="sNdO-N4uLc9RXzIMHpv_-31">
          <mxGeometry x="20" y="230" width="50" height="20" as="geometry" />
        </mxCell>
        <mxCell id="sNdO-N4uLc9RXzIMHpv_-43" style="edgeStyle=orthogonalEdgeStyle;rounded=0;orthogonalLoop=1;jettySize=auto;html=1;exitX=1;exitY=0.5;exitDx=0;exitDy=0;" edge="1" parent="WIyWlLk6GJQsqaUBKTNV-1" source="sNdO-N4uLc9RXzIMHpv_-10">
          <mxGeometry relative="1" as="geometry">
            <mxPoint x="580" y="510" as="targetPoint" />
            <Array as="points">
              <mxPoint x="490" y="559" />
              <mxPoint x="490" y="510" />
              <mxPoint x="590" y="510" />
            </Array>
          </mxGeometry>
        </mxCell>
        <mxCell id="sNdO-N4uLc9RXzIMHpv_-44" style="edgeStyle=orthogonalEdgeStyle;rounded=0;orthogonalLoop=1;jettySize=auto;html=1;exitX=1;exitY=0.5;exitDx=0;exitDy=0;entryX=0;entryY=0.5;entryDx=0;entryDy=0;" edge="1" parent="WIyWlLk6GJQsqaUBKTNV-1" source="sNdO-N4uLc9RXzIMHpv_-11" target="sNdO-N4uLc9RXzIMHpv_-31">
          <mxGeometry relative="1" as="geometry">
            <Array as="points">
              <mxPoint x="490" y="585" />
              <mxPoint x="490" y="870" />
              <mxPoint x="590" y="870" />
            </Array>
          </mxGeometry>
        </mxCell>
        <mxCell id="sNdO-N4uLc9RXzIMHpv_-52" value="X_test" style="swimlane;fontStyle=0;childLayout=stackLayout;horizontal=1;startSize=30;horizontalStack=0;resizeParent=1;resizeParentMax=0;resizeLast=0;collapsible=1;marginBottom=0;" vertex="1" parent="WIyWlLk6GJQsqaUBKTNV-1">
          <mxGeometry x="600" y="-180" width="140" height="82" as="geometry" />
        </mxCell>
        <mxCell id="sNdO-N4uLc9RXzIMHpv_-53" value="Amplitude" style="text;strokeColor=none;fillColor=none;align=left;verticalAlign=top;spacingLeft=4;spacingRight=4;overflow=hidden;rotatable=0;points=[[0,0.5],[1,0.5]];portConstraint=eastwest;" vertex="1" parent="sNdO-N4uLc9RXzIMHpv_-52">
          <mxGeometry y="30" width="140" height="26" as="geometry" />
        </mxCell>
        <mxCell id="sNdO-N4uLc9RXzIMHpv_-54" value="Phase" style="text;strokeColor=none;fillColor=none;align=left;verticalAlign=top;spacingLeft=4;spacingRight=4;overflow=hidden;rotatable=0;points=[[0,0.5],[1,0.5]];portConstraint=eastwest;" vertex="1" parent="sNdO-N4uLc9RXzIMHpv_-52">
          <mxGeometry y="56" width="140" height="26" as="geometry" />
        </mxCell>
        <mxCell id="sNdO-N4uLc9RXzIMHpv_-55" value="X_train" style="swimlane;fontStyle=0;childLayout=stackLayout;horizontal=1;startSize=26;horizontalStack=0;resizeParent=1;resizeParentMax=0;resizeLast=0;collapsible=1;marginBottom=0;" vertex="1" parent="WIyWlLk6GJQsqaUBKTNV-1">
          <mxGeometry x="600" y="-60" width="140" height="78" as="geometry" />
        </mxCell>
        <mxCell id="sNdO-N4uLc9RXzIMHpv_-56" value="Amplitude" style="text;strokeColor=none;fillColor=none;align=left;verticalAlign=top;spacingLeft=4;spacingRight=4;overflow=hidden;rotatable=0;points=[[0,0.5],[1,0.5]];portConstraint=eastwest;" vertex="1" parent="sNdO-N4uLc9RXzIMHpv_-55">
          <mxGeometry y="26" width="140" height="26" as="geometry" />
        </mxCell>
        <mxCell id="sNdO-N4uLc9RXzIMHpv_-57" value="Phase" style="text;strokeColor=none;fillColor=none;align=left;verticalAlign=top;spacingLeft=4;spacingRight=4;overflow=hidden;rotatable=0;points=[[0,0.5],[1,0.5]];portConstraint=eastwest;" vertex="1" parent="sNdO-N4uLc9RXzIMHpv_-55">
          <mxGeometry y="52" width="140" height="26" as="geometry" />
        </mxCell>
        <mxCell id="sNdO-N4uLc9RXzIMHpv_-58" style="edgeStyle=orthogonalEdgeStyle;rounded=0;orthogonalLoop=1;jettySize=auto;html=1;exitX=1;exitY=0.25;exitDx=0;exitDy=0;entryX=0;entryY=0.923;entryDx=0;entryDy=0;entryPerimeter=0;" edge="1" parent="WIyWlLk6GJQsqaUBKTNV-1" target="sNdO-N4uLc9RXzIMHpv_-53" source="sNdO-N4uLc9RXzIMHpv_-73">
          <mxGeometry relative="1" as="geometry">
            <mxPoint x="390" y="-66" as="sourcePoint" />
          </mxGeometry>
        </mxCell>
        <mxCell id="sNdO-N4uLc9RXzIMHpv_-59" style="edgeStyle=orthogonalEdgeStyle;rounded=0;orthogonalLoop=1;jettySize=auto;html=1;exitX=1;exitY=0.75;exitDx=0;exitDy=0;entryX=0;entryY=0.25;entryDx=0;entryDy=0;" edge="1" parent="WIyWlLk6GJQsqaUBKTNV-1" target="sNdO-N4uLc9RXzIMHpv_-55" source="sNdO-N4uLc9RXzIMHpv_-73">
          <mxGeometry relative="1" as="geometry">
            <mxPoint x="390" y="-40" as="sourcePoint" />
          </mxGeometry>
        </mxCell>
        <mxCell id="sNdO-N4uLc9RXzIMHpv_-60" value="X_test" style="swimlane;fontStyle=0;childLayout=stackLayout;horizontal=1;startSize=26;horizontalStack=0;resizeParent=1;resizeParentMax=0;resizeLast=0;collapsible=1;marginBottom=0;" vertex="1" parent="WIyWlLk6GJQsqaUBKTNV-1">
          <mxGeometry x="600" y="-600" width="140" height="78" as="geometry" />
        </mxCell>
        <mxCell id="sNdO-N4uLc9RXzIMHpv_-61" value="Inphase" style="text;strokeColor=none;fillColor=none;align=left;verticalAlign=top;spacingLeft=4;spacingRight=4;overflow=hidden;rotatable=0;points=[[0,0.5],[1,0.5]];portConstraint=eastwest;" vertex="1" parent="sNdO-N4uLc9RXzIMHpv_-60">
          <mxGeometry y="26" width="140" height="26" as="geometry" />
        </mxCell>
        <mxCell id="sNdO-N4uLc9RXzIMHpv_-62" value="Quadrature" style="text;strokeColor=none;fillColor=none;align=left;verticalAlign=top;spacingLeft=4;spacingRight=4;overflow=hidden;rotatable=0;points=[[0,0.5],[1,0.5]];portConstraint=eastwest;" vertex="1" parent="sNdO-N4uLc9RXzIMHpv_-60">
          <mxGeometry y="52" width="140" height="26" as="geometry" />
        </mxCell>
        <mxCell id="sNdO-N4uLc9RXzIMHpv_-63" value="X_train" style="swimlane;fontStyle=0;childLayout=stackLayout;horizontal=1;startSize=26;horizontalStack=0;resizeParent=1;resizeParentMax=0;resizeLast=0;collapsible=1;marginBottom=0;" vertex="1" parent="WIyWlLk6GJQsqaUBKTNV-1">
          <mxGeometry x="600" y="-490" width="140" height="78" as="geometry" />
        </mxCell>
        <mxCell id="sNdO-N4uLc9RXzIMHpv_-64" value="Inphase" style="text;strokeColor=none;fillColor=none;align=left;verticalAlign=top;spacingLeft=4;spacingRight=4;overflow=hidden;rotatable=0;points=[[0,0.5],[1,0.5]];portConstraint=eastwest;" vertex="1" parent="sNdO-N4uLc9RXzIMHpv_-63">
          <mxGeometry y="26" width="140" height="26" as="geometry" />
        </mxCell>
        <mxCell id="sNdO-N4uLc9RXzIMHpv_-65" value="Quadrature" style="text;strokeColor=none;fillColor=none;align=left;verticalAlign=top;spacingLeft=4;spacingRight=4;overflow=hidden;rotatable=0;points=[[0,0.5],[1,0.5]];portConstraint=eastwest;" vertex="1" parent="sNdO-N4uLc9RXzIMHpv_-63">
          <mxGeometry y="52" width="140" height="26" as="geometry" />
        </mxCell>
        <mxCell id="sNdO-N4uLc9RXzIMHpv_-66" style="edgeStyle=orthogonalEdgeStyle;rounded=0;orthogonalLoop=1;jettySize=auto;html=1;entryX=0;entryY=0.923;entryDx=0;entryDy=0;entryPerimeter=0;exitX=1;exitY=0.25;exitDx=0;exitDy=0;" edge="1" parent="WIyWlLk6GJQsqaUBKTNV-1" target="sNdO-N4uLc9RXzIMHpv_-61" source="sNdO-N4uLc9RXzIMHpv_-68">
          <mxGeometry relative="1" as="geometry">
            <mxPoint x="250" y="-430" as="sourcePoint" />
          </mxGeometry>
        </mxCell>
        <mxCell id="sNdO-N4uLc9RXzIMHpv_-88" style="edgeStyle=orthogonalEdgeStyle;rounded=0;orthogonalLoop=1;jettySize=auto;html=1;exitX=1;exitY=0.75;exitDx=0;exitDy=0;entryX=0;entryY=0.5;entryDx=0;entryDy=0;" edge="1" parent="WIyWlLk6GJQsqaUBKTNV-1" source="sNdO-N4uLc9RXzIMHpv_-68" target="sNdO-N4uLc9RXzIMHpv_-64">
          <mxGeometry relative="1" as="geometry" />
        </mxCell>
        <mxCell id="sNdO-N4uLc9RXzIMHpv_-68" value="X IQ" style="swimlane;" vertex="1" parent="WIyWlLk6GJQsqaUBKTNV-1">
          <mxGeometry x="225" y="-680" width="110" height="340" as="geometry" />
        </mxCell>
        <mxCell id="sNdO-N4uLc9RXzIMHpv_-70" value="-20 SNR&amp;nbsp;&lt;br&gt;18 SNR&lt;br&gt;-16SNR&lt;br&gt;-14 SNR&lt;br&gt;-12 SNR&lt;br&gt;-10 SNR&lt;br&gt;-6 SNR&lt;br&gt;-4 SNR&lt;br&gt;-2 SNR&lt;br&gt;0 SNR&lt;br&gt;2 SNR&lt;br&gt;4SNR&lt;br&gt;6 SNR&lt;br&gt;8 SNR&lt;br&gt;10 SNR&lt;br&gt;12 SNR&lt;br&gt;14 SNR&lt;br&gt;16 SNR&lt;br&gt;18 SNR&lt;br&gt;20 SNR&lt;br&gt;" style="text;html=1;align=center;verticalAlign=middle;resizable=0;points=[];autosize=1;strokeColor=none;" vertex="1" parent="sNdO-N4uLc9RXzIMHpv_-68">
          <mxGeometry x="10" y="25" width="60" height="290" as="geometry" />
        </mxCell>
        <mxCell id="sNdO-N4uLc9RXzIMHpv_-72" style="edgeStyle=orthogonalEdgeStyle;rounded=0;orthogonalLoop=1;jettySize=auto;html=1;exitX=0.5;exitY=0;exitDx=0;exitDy=0;entryX=0.57;entryY=-0.022;entryDx=0;entryDy=0;entryPerimeter=0;" edge="1" parent="WIyWlLk6GJQsqaUBKTNV-1" source="sNdO-N4uLc9RXzIMHpv_-63" target="sNdO-N4uLc9RXzIMHpv_-63">
          <mxGeometry relative="1" as="geometry" />
        </mxCell>
        <mxCell id="sNdO-N4uLc9RXzIMHpv_-73" value="X AP" style="swimlane;" vertex="1" parent="WIyWlLk6GJQsqaUBKTNV-1">
          <mxGeometry x="225" y="-264" width="110" height="340" as="geometry" />
        </mxCell>
        <mxCell id="sNdO-N4uLc9RXzIMHpv_-75" value="-20 SNR&amp;nbsp;&lt;br&gt;18 SNR&lt;br&gt;-16SNR&lt;br&gt;-14 SNR&lt;br&gt;-12 SNR&lt;br&gt;-10 SNR&lt;br&gt;-6 SNR&lt;br&gt;-4 SNR&lt;br&gt;-2 SNR&lt;br&gt;0 SNR&lt;br&gt;2 SNR&lt;br&gt;4SNR&lt;br&gt;6 SNR&lt;br&gt;8 SNR&lt;br&gt;10 SNR&lt;br&gt;12 SNR&lt;br&gt;14 SNR&lt;br&gt;16 SNR&lt;br&gt;18 SNR&lt;br&gt;20 SNR" style="text;html=1;align=center;verticalAlign=middle;resizable=0;points=[];autosize=1;strokeColor=none;" vertex="1" parent="sNdO-N4uLc9RXzIMHpv_-73">
          <mxGeometry x="10" y="38" width="60" height="290" as="geometry" />
        </mxCell>
        <mxCell id="sNdO-N4uLc9RXzIMHpv_-74" value="&lt;span style=&quot;color: rgba(0 , 0 , 0 , 0) ; font-family: monospace ; font-size: 0px&quot;&gt;%3CmxGraphModel%3E%3Croot%3E%3CmxCell%20id%3D%220%22%2F%3E%3CmxCell%20id%3D%221%22%20parent%3D%220%22%2F%3E%3CmxCell%20id%3D%222%22%20value%3D%22-20%20SNR%26amp%3Bnbsp%3B%26lt%3Bbr%26gt%3B18%20SNR%26lt%3Bbr%26gt%3B-16SNR%26lt%3Bbr%26gt%3B-14%20SNR%26lt%3Bbr%26gt%3B-12%20SNR%26lt%3Bbr%26gt%3B-10%20SNR%26lt%3Bbr%26gt%3B-6%20SNR%26lt%3Bbr%26gt%3B-4%20SNR%26lt%3Bbr%26gt%3B-2%20SNR%26lt%3Bbr%26gt%3B0%20SNR%26lt%3Bbr%26gt%3B2%20SNR%26lt%3Bbr%26gt%3B4SNR%26lt%3Bbr%26gt%3B6%20SNR%26lt%3Bbr%26gt%3B8%20SNR%26lt%3Bbr%26gt%3B10%20SNR%26lt%3Bbr%26gt%3B12%20SNR%26lt%3Bbr%26gt%3B14%20SNR%26lt%3Bbr%26gt%3B16%20SNR%26lt%3Bbr%26gt%3B18%20SNR%26lt%3Bbr%26gt%3B20%20SNR%26lt%3Bbr%26gt%3B%22%20style%3D%22text%3Bhtml%3D1%3Balign%3Dcenter%3BverticalAlign%3Dmiddle%3Bresizable%3D0%3Bpoints%3D%5B%5D%3Bautosize%3D1%3BstrokeColor%3Dnone%3B%22%20vertex%3D%221%22%20parent%3D%221%22%3E%3CmxGeometry%20x%3D%22150%22%20y%3D%22-495%22%20width%3D%2260%22%20height%3D%22290%22%20as%3D%22geometry%22%2F%3E%3C%2FmxCell%3E%3C%2Froot%3E%3C%2FmxGraphModel%3E&lt;/span&gt;" style="text;html=1;align=center;verticalAlign=middle;resizable=0;points=[];autosize=1;strokeColor=none;" vertex="1" parent="WIyWlLk6GJQsqaUBKTNV-1">
          <mxGeometry x="180" y="-110" width="20" height="20" as="geometry" />
        </mxCell>
        <mxCell id="sNdO-N4uLc9RXzIMHpv_-78" style="edgeStyle=orthogonalEdgeStyle;rounded=0;orthogonalLoop=1;jettySize=auto;html=1;exitX=1;exitY=0.25;exitDx=0;exitDy=0;entryX=0;entryY=0.5;entryDx=0;entryDy=0;" edge="1" parent="WIyWlLk6GJQsqaUBKTNV-1" source="sNdO-N4uLc9RXzIMHpv_-76" target="sNdO-N4uLc9RXzIMHpv_-2">
          <mxGeometry relative="1" as="geometry" />
        </mxCell>
        <mxCell id="sNdO-N4uLc9RXzIMHpv_-76" value="X Delta A Delta P" style="swimlane;" vertex="1" parent="WIyWlLk6GJQsqaUBKTNV-1">
          <mxGeometry x="225" y="130" width="110" height="340" as="geometry" />
        </mxCell>
        <mxCell id="sNdO-N4uLc9RXzIMHpv_-77" value="-20 SNR&amp;nbsp;&lt;br&gt;18 SNR&lt;br&gt;-16SNR&lt;br&gt;-14 SNR&lt;br&gt;-12 SNR&lt;br&gt;-10 SNR&lt;br&gt;-6 SNR&lt;br&gt;-4 SNR&lt;br&gt;-2 SNR&lt;br&gt;0 SNR&lt;br&gt;2 SNR&lt;br&gt;4SNR&lt;br&gt;6 SNR&lt;br&gt;8 SNR&lt;br&gt;10 SNR&lt;br&gt;12 SNR&lt;br&gt;14 SNR&lt;br&gt;16 SNR&lt;br&gt;18 SNR&lt;br&gt;20 SNR" style="text;html=1;align=center;verticalAlign=middle;resizable=0;points=[];autosize=1;strokeColor=none;" vertex="1" parent="sNdO-N4uLc9RXzIMHpv_-76">
          <mxGeometry x="20" y="38" width="60" height="290" as="geometry" />
        </mxCell>
        <mxCell id="sNdO-N4uLc9RXzIMHpv_-82" style="edgeStyle=orthogonalEdgeStyle;rounded=0;orthogonalLoop=1;jettySize=auto;html=1;entryX=0;entryY=0.5;entryDx=0;entryDy=0;" edge="1" parent="WIyWlLk6GJQsqaUBKTNV-1" target="sNdO-N4uLc9RXzIMHpv_-76">
          <mxGeometry relative="1" as="geometry">
            <mxPoint x="160" y="529" as="sourcePoint" />
          </mxGeometry>
        </mxCell>
        <mxCell id="sNdO-N4uLc9RXzIMHpv_-83" style="edgeStyle=orthogonalEdgeStyle;rounded=0;orthogonalLoop=1;jettySize=auto;html=1;exitX=1;exitY=0.5;exitDx=0;exitDy=0;entryX=0;entryY=0.25;entryDx=0;entryDy=0;" edge="1" parent="WIyWlLk6GJQsqaUBKTNV-1" source="sNdO-N4uLc9RXzIMHpv_-4" target="sNdO-N4uLc9RXzIMHpv_-73">
          <mxGeometry relative="1" as="geometry" />
        </mxCell>
        <mxCell id="sNdO-N4uLc9RXzIMHpv_-84" style="edgeStyle=orthogonalEdgeStyle;rounded=0;orthogonalLoop=1;jettySize=auto;html=1;exitX=1;exitY=0.5;exitDx=0;exitDy=0;entryX=0;entryY=0.5;entryDx=0;entryDy=0;" edge="1" parent="WIyWlLk6GJQsqaUBKTNV-1" source="sNdO-N4uLc9RXzIMHpv_-4" target="sNdO-N4uLc9RXzIMHpv_-68">
          <mxGeometry relative="1" as="geometry" />
        </mxCell>
        <mxCell id="sNdO-N4uLc9RXzIMHpv_-89" style="edgeStyle=orthogonalEdgeStyle;rounded=0;orthogonalLoop=1;jettySize=auto;html=1;exitX=0.75;exitY=0;exitDx=0;exitDy=0;entryX=1;entryY=0;entryDx=0;entryDy=0;" edge="1" parent="WIyWlLk6GJQsqaUBKTNV-1" source="sNdO-N4uLc9RXzIMHpv_-63" target="sNdO-N4uLc9RXzIMHpv_-63">
          <mxGeometry relative="1" as="geometry" />
        </mxCell>
      </root>
    </mxGraphModel>
  </diagram>
</mxfile>
